General
Unique ID                   : 24496296939762928049680564403867598054 (0x126DD0AFA7C9F4C2E0C97DD47371BCE6)
Complete name               : BLUE PLANET JAPAN - Hitotsu dake ~We Are The One~ [NTSC DVD 480i PCM 2.0 MPEG-2 REMUX-SEKAI].mkv
Format                      : Matroska
Format version              : Version 4
File size                   : 546 MiB
Duration                    : 8 min 56 s
Overall bit rate mode       : Variable
Overall bit rate            : 8 532 kb/s
Frame rate                  : 29.970 FPS
Title                       : BLUE PLANET JAPAN - Hitotsu dake ~We Are The One~ [NTSC DVD 480i PCM 2.0 MPEG-2 REMUX-SEKAI]
Encoded date                : 2026-01-16 17:03:52 UTC
Writing application         : mkvmerge v97.0 ('You Don't Have A Clue') 64-bit
Writing library             : libebml v1.4.5 + libmatroska v1.7.1
Website                     : https://sekai-archivist.blogspot.com/

Video
ID                          : 1
Format                      : MPEG Video
Format version              : Version 2
Format profile              : Main@Main
Format settings             : CustomMatrix / BVOP
Format settings, BVOP       : Yes
Format settings, Matrix     : Custom
Format settings, GOP        : M=3, N=12
Format settings, picture st : Frame
Codec ID                    : V_MPEG2
Codec ID/Info               : MPEG 1 or 2 Video
Duration                    : 8 min 56 s
Bit rate mode               : Variable
Bit rate                    : 6 994 kb/s
Maximum bit rate            : 8 500 kb/s
Width                       : 720 pixels
Height                      : 480 pixels
Display aspect ratio        : 16:9
Frame rate mode             : Constant
Frame rate                  : 29.970 (30000/1001) FPS
Standard                    : NTSC
Color space                 : YUV
Chroma subsampling          : 4:2:0
Bit depth                   : 8 bits
Scan type                   : Interlaced
Scan order                  : Bottom Field First
Compression mode            : Lossy
Bits/(Pixel*Frame)          : 0.675
Time code of first frame    : 00:00:00:00
Time code source            : Group of pictures header
GOP, Open/Closed            : Closed
Stream size                 : 447 MiB (82%)
Language                    : Japanese
Default                     : Yes
Forced                      : No
Color primaries             : BT.601 NTSC
Transfer characteristics    : BT.601
Matrix coefficients         : BT.601

Audio
ID                          : 2
Format                      : PCM
Format settings             : Little / Signed
Codec ID                    : A_PCM/INT/LIT
Duration                    : 8 min 56 s
Bit rate mode               : Constant
Bit rate                    : 1 536 kb/s
Channel(s)                  : 2 channels
Sampling rate               : 48.0 kHz
Frame rate                  : 25.001 FPS (1920 SPF)
Bit depth                   : 16 bits
Stream size                 : 98.2 MiB (18%)
Language                    : Japanese
Default                     : Yes
Forced                      : No

